<svg xmlns="http://www.w3.org/2000/svg" viewBox="0 0 24 18" role="img" aria-label="English language flag">
  <defs>
    <clipPath id="flag-en-clip">
      <rect width="24" height="18" rx="2"/>
    </clipPath>
  </defs>
  <g clip-path="url(#flag-en-clip)">
    <rect width="24" height="18" fill="#012169"/>
    <path d="M0 0h3.1L24 15.7V18h-3.1L0 2.3zM24 0h-3.1L0 15.7V18h3.1L24 2.3z" fill="#FFFFFF"/>
    <path d="M0 0h1.7L24 16.7V18h-1.7L0 1.3zM24 0h-1.7L0 16.7V18h1.7L24 1.3z" fill="#C8102E"/>
    <path d="M10 0h4v18h-4zM0 7h24v4H0z" fill="#FFFFFF"/>
    <path d="M10.8 0h2.4v18h-2.4zM0 7.8h24v2.4H0z" fill="#C8102E"/>
  </g>
</svg>
